<?xml version="1.0" standalone="no"?>
<!DOCTYPE svg PUBLIC "-//W3C//DTD SVG 1.1//EN" "http://www.w3.org/Graphics/SVG/1.1/DTD/svg11.dtd" >
<svg xmlns="http://www.w3.org/2000/svg">
<metadata>Generated by IcoMoon</metadata>
<defs>
<font id="icomoon" horiz-adv-x="1024">
<font-face units-per-em="1024" ascent="960" descent="-64" />
<missing-glyph horiz-adv-x="1024" />
<glyph unicode="&#x20;" horiz-adv-x="512" d="" />
<glyph unicode="&#xe900;" glyph-name="contract" d="M972.8 960h-51.2c-30.72 0-51.2-20.48-51.2-51.2v-665.6h153.6v665.6c0 30.72-20.48 51.2-51.2 51.2zM870.4 140.8v-51.2l76.8-153.6 76.8 153.6v51.2zM665.6 960h-563.2c-56.32 0-102.4-46.080-102.4-102.4v-819.2c0-56.32 46.080-102.4 102.4-102.4h563.2c56.32 0 102.4 46.080 102.4 102.4v819.2c0 56.32-46.080 102.4-102.4 102.4zM409.6 89.6h-204.8c-30.72 0-51.2 20.48-51.2 51.2s20.48 51.2 51.2 51.2h204.8c30.72 0 51.2-20.48 51.2-51.2s-20.48-51.2-51.2-51.2zM563.2 294.4h-358.4c-30.72 0-51.2 20.48-51.2 51.2s20.48 51.2 51.2 51.2h358.4c30.72 0 51.2-20.48 51.2-51.2s-20.48-51.2-51.2-51.2zM563.2 499.2h-358.4c-30.72 0-51.2 20.48-51.2 51.2s20.48 51.2 51.2 51.2h358.4c30.72 0 51.2-20.48 51.2-51.2s-20.48-51.2-51.2-51.2zM563.2 704h-358.4c-30.72 0-51.2 20.48-51.2 51.2s20.48 51.2 51.2 51.2h358.4c30.72 0 51.2-20.48 51.2-51.2s-20.48-51.2-51.2-51.2z" />
<glyph unicode="&#xe901;" glyph-name="diamond-1" d="M777.896 647.6l118.104 141.733-85.333 128h-256l-85.333-128 118.104-141.733c-142.115-41.251-246.104-172.173-246.104-327.6 0-75.557 24.853-145.144 66.405-201.691 27.875 9.213 53.083 23.739 74.563 42.819-34.728 43.701-55.635 98.848-55.635 158.872 0 75.413 32.979 143.104 85.040 189.997 52.293-46.853 85.627-114.416 85.627-189.997 0-141.157-114.843-256-256-256s-256 114.843-256 256 114.843 256 256 256c17.595 0 34.781-1.792 51.397-5.189 21.792 25.2 46.771 47.464 74.363 66.299-38.96 15.464-81.301 24.224-125.76 24.224-188.509 0-341.333-152.821-341.333-341.333s152.824-341.333 341.333-341.333c62.301 0 120.52 16.965 170.8 46.123 50.187-29.152 108.304-46.123 170.533-46.123 188.509 0 341.333 152.821 341.333 341.333 0 155.427-103.989 286.349-246.104 327.6zM740.824 669.771l28.323 76.896h35.749l-64.072-76.896zM806.168 847.163l36.656-54.987-2.363-2.843h-55.595l21.301 57.829zM770.864 874.667l-20.781-56.381-31.592 56.381h52.373zM723.696 746.667l-31.613-85.808c-3.155 0.085-6.24 0.475-9.416 0.475s-6.251-0.389-9.395-0.475l-31.584 85.808h82.008zM682.624 851.376l34.749-62.043h-69.731l34.981 62.043zM646.76 874.667l-31.573-56.003-20.603 56.003h52.176zM522.512 792.176l36.699 55.056 21.299-57.899h-55.635l-2.363 2.843zM560.44 746.667h35.771l28.304-76.893-64.075 76.893zM682.667 64c-33.947 0-66.093 7.2-95.728 19.317 59.165 61.381 95.728 144.699 95.728 236.683 0 92.272-37.011 175.571-96.552 236.955 29.821 12.197 62.384 19.045 96.552 19.045 141.157 0 256-114.843 256-256s-114.843-256-256-256z" />
<glyph unicode="&#xe902;" glyph-name="dog" d="M398.039 642.937c60.008 0 108.828 48.813 108.828 108.82v84.859c0 68.031-55.352 123.383-123.383 123.383h-94.281v-208.242c0-60.008 48.813-108.82 108.836-108.82zM783.828 475.734l-82.516 35.891c-70.797 30.797-126.555 84.969-159.883 151.156-29.828-47.891-82.938-79.844-143.391-79.844-93.094 0-168.836 75.734-168.836 168.82v194.172c-40.664-21.031-68.539-63.461-68.539-112.328 0-36.617-29.789-66.398-66.398-66.398h-64.266c-16.57 0-30-13.438-30-30v-48.203c0-78.555 63.906-142.469 142.469-142.469h48.195c18.898 0 34.266-15.367 34.266-34.266v-69.773c0-62.352 22.727-121.211 64.266-167.117v-173.758l-12.594-25.18c-12.781-25.578-19.539-54.211-19.539-82.789v-27.648c0-16.57 13.43-30 30-30h98.539v30.031c0 87.688 70.945 158.5 158.5 158.5h2.164v2.133c0 105.133 85.539 190.664 190.672 190.664 16.563 0 30-13.43 30-30 0-16.563-13.438-30-30-30-72.055 0-130.672-58.609-130.672-130.664v-32.133c0-16.57-13.43-30-30-30h-32.164c-54.5 0-98.5-44.094-98.5-98.5v-30.031h548.398c16.57 0 30 13.43 30 30v143.367c0 159.094-94.273 302.906-240.172 366.367z" />
<glyph unicode="&#xe903;" glyph-name="facebook-f-brands" horiz-adv-x="640" d="M558.28 384l28.44 185.32h-177.82v120.26c0 50.7 24.84 100.12 104.48 100.12h80.84v157.78s-73.36 12.52-143.5 12.52c-146.44 0-242.16-88.76-242.16-249.44v-141.24h-162.78v-185.32h162.78v-448h200.34v448z" />
<glyph unicode="&#xe904;" glyph-name="flood" d="M127.999 166.806c10.339-4.523 19.738-9.183 28.531-13.587 29.251-14.625 50.406-25.219 99.218-25.219 48.843 0 70 10.594 99.281 25.25 8.899 4.449 18.465 9.156 28.969 13.731v217.020h255.998v-217.285c10.242-4.484 19.531-9.101 28.251-13.465 29.343-14.656 50.562-25.25 99.53-25.25 48.937 0 70.156 10.594 99.499 25.25 8.84 4.414 18.309 9.082 28.718 13.622v281.136l127.942-0.008-127.94 127.999v256.001h-127.999v-128.059l-256.058 256.058-511.939-511.939 127.999-0.008zM867.281 89.251c-29.343-14.656-50.562-25.25-99.499-25.25-48.968 0-70.187 10.594-99.53 25.25-34.532 17.28-77.563 38.75-156.686 38.75-79.062 0-122.031-21.501-156.53-38.75-29.281-14.656-50.437-25.25-99.281-25.25-48.812 0-69.969 10.594-99.218 25.219-34.532 17.28-77.468 38.781-156.53 38.781v-127.999c48.812 0 69.969-10.594 99.218-25.219 34.532-17.28 77.468-38.781 156.53-38.781s122.031 21.501 156.53 38.75c29.281 14.656 50.437 25.25 99.281 25.25 48.937 0 70.156-10.594 99.499-25.25 34.563-17.25 77.563-38.75 156.719-38.75 79.126 0 122.156 21.468 156.686 38.75 29.343 14.656 50.562 25.25 99.53 25.25v127.999c-79.157 0-122.156-21.499-156.719-38.75z" />
<glyph unicode="&#xe905;" glyph-name="graph" d="M573.996 478.382h-184c-16.582 0-30-13.418-30-30v-391.998h243.998v391.998c0.002 16.582-13.416 30-29.998 30zM1018.574 645.576l-209.998 302c-11.25 16.054-37.91 16.054-49.16 0l-210-302c-6.416-9.168-7.208-21.122-2.022-31.054 5.156-9.932 15.41-16.142 26.602-16.142h90v-541.996h239.998v541.998h90c11.192 0 21.446 6.21 26.602 16.142 5.186 9.93 4.394 21.882-2.022 31.052zM269.998 298.382h-179.998c-16.582 0-30-13.418-30-30v-211.998h239.998v212c0 16.58-13.418 29.998-30 29.998zM993.994-3.616c-481.876 0-468.284 0-963.994 0-16.582 0-30-13.418-30-30s13.418-30 30-30c474.486 0-1.12 0 963.994 0 16.582 0 30 13.418 30 30s-13.418 30-30 30z" />
<glyph unicode="&#xe906;" glyph-name="hand-shake" d="M114.992 712h-90.852c-13.336 0-24.141-10.805-24.141-24.141v-420.625c0-13.336 10.805-24.141 24.141-24.141h90.852c13.336 0 24.141 10.805 24.141 24.141v420.625c0 13.336-10.805 24.141-24.141 24.141zM749.633 332.641l-233.258 158.609c-0.328 0.219-0.656 0.445-0.977 0.68-10.219 7.242-18.938 11.398-23.914 11.398-3.547 0-9.109-2.125-15.789-6l-69-49.523c-0.398-0.289-0.805-0.57-1.219-0.852-20.602-14.047-44.773-21.477-69.891-21.477-22.969 0-45.742 6.141-65.883 17.766-29.758 17.18-50.227 46.43-56.141 80.258-5.914 33.813 3.406 68.25 25.555 94.484 2.281 2.703 15.648 14.305 15.648 14.305h-53.945v-335.93l176.266-103.93c11.227-6.992 23.828-10.102 35.992-10.102 26 0 49.953 14.234 53.906 35.195 10.758-15.086 32.289-22.375 54.492-22.375 27.625 0 56.289 11.289 66.547 32.914 9.344-9.117 25.25-13.539 41.648-13.539 26.078 0 53.383 11.188 57.438 32.43 10.648-8.094 23.164-11.484 35.703-11.484 40.984 0 82.148 36.211 58.539 62.461zM999.859 712h-90.852c-13.336 0-24.141-10.805-24.141-24.141v-431.133c0-13.336 10.805-24.148 24.141-24.148h90.852c13.336 0 24.141 10.813 24.141 24.148v431.133c0 13.336-10.805 24.141-24.141 24.141zM388.836 664.18l-102.586-85.992c-21.695-25.688-14.859-64.703 14.289-81.523 10.258-5.922 22.492-9.5 35.039-9.5 11.914 0 24.109 3.234 35.148 10.758l71.117 51.039c17.43 10.609 33.477 16.055 49.641 16.055 18.906 0 37.969-7.445 59.578-22.758l253.797-172.57 18.32 4.289v313.883c0 2.961 0.148 5.898 0.445 8.781h-351.867c-38.828 0.008-51.133-7.242-82.922-32.461z" />
<glyph unicode="&#xe907;" glyph-name="heartbeat" d="M752 894c-121.318 0-199.19-84.024-240-159.698-40.81 75.676-118.682 159.698-240 159.698-153.926 0-272-124.892-272-290.536 0-43.22 8.654-83.122 24.588-121.464h228.868l51.708 103.418c10.196 20.332 43.476 20.332 53.672 0l93.164-186.33 33.164 66.328c10.196 20.332 43.476 20.332 53.672 0l33.164-66.328 93.164 186.328c10.196 20.332 43.476 20.332 53.672 0l51.708-103.416h228.868c15.934 38.342 24.588 78.244 24.588 121.464 0 165.644-118.074 290.536-272 290.536zM752 422c-11.368 0-21.738 6.416-26.836 16.582l-33.164 66.328-93.164-186.328c-5.098-10.166-15.468-16.582-26.836-16.582s-21.738 6.416-26.836 16.582l-33.164 66.328-33.164-66.328c-10.196-20.332-43.476-20.332-53.672 0l-93.164 186.328-33.164-66.328c-5.098-10.166-15.468-16.582-26.836-16.582h-215.926c61.746-97.148 172.948-189.426 312.048-306.826 39.052-32.958 80.596-68.028 124.218-105.85 5.654-4.892 12.656-7.324 19.658-7.324s14.004 2.432 19.658 7.324c43.624 37.822 85.166 72.89 124.218 105.85 139.102 117.4 250.302 209.678 312.048 306.826h-215.922z" />
<glyph unicode="&#xe908;" glyph-name="instagram-brands" horiz-adv-x="896" d="M448.2 678c-127.2 0-229.8-102.6-229.8-229.8s102.6-229.8 229.8-229.8 229.8 102.6 229.8 229.8-102.6 229.8-229.8 229.8zM448.2 298.8c-82.2 0-149.4 67-149.4 149.4s67 149.4 149.4 149.4 149.4-67 149.4-149.4-67.2-149.4-149.4-149.4zM741 687.4c0-29.8-24-53.6-53.6-53.6-29.8 0-53.6 24-53.6 53.6s24 53.6 53.6 53.6 53.6-24 53.6-53.6zM893.2 633c-3.4 71.8-19.8 135.4-72.4 187.8-52.4 52.4-116 68.8-187.8 72.4-74 4.2-295.8 4.2-369.8 0-71.6-3.4-135.2-19.8-187.8-72.2s-68.8-116-72.4-187.8c-4.2-74-4.2-295.8 0-369.8 3.4-71.8 19.8-135.4 72.4-187.8s116-68.8 187.8-72.4c74-4.2 295.8-4.2 369.8 0 71.8 3.4 135.4 19.8 187.8 72.4 52.4 52.4 68.8 116 72.4 187.8 4.2 74 4.2 295.6 0 369.6zM797.6 184c-15.6-39.2-45.8-69.4-85.2-85.2-59-23.4-199-18-264.2-18s-205.4-5.2-264.2 18c-39.2 15.6-69.4 45.8-85.2 85.2-23.4 59-18 199-18 264.2s-5.2 205.4 18 264.2c15.6 39.2 45.8 69.4 85.2 85.2 59 23.4 199 18 264.2 18s205.4 5.2 264.2-18c39.2-15.6 69.4-45.8 85.2-85.2 23.4-59 18-199 18-264.2s5.4-205.4-18-264.2z" />
<glyph unicode="&#xe909;" glyph-name="medicine-briefcase" d="M892.104 745.183h-20.035v31.722c0 7.791-6.122 13.913-13.913 13.913h-77.913c-7.791 0-13.913-6.122-13.913-13.913v-31.722h-69.009v35.061c0 53.983-43.965 97.948-97.948 97.948h-175.304c-53.983 0-97.948-43.965-97.948-97.948v-35.061h-68.452v31.722c0 7.791-6.122 13.913-13.913 13.913h-77.913c-7.791 0-13.913-6.122-13.913-13.913v-31.722h-20.035c-72.904 0-131.896-58.991-131.896-131.339v-464.696c0-72.904 58.991-131.896 131.896-131.896h760.209c72.904 0 131.896 58.991 131.896 131.896v464.696c0 72.348-58.991 131.339-131.896 131.339zM382.33 780.8c0 23.374 18.922 42.296 42.296 42.296h175.304c23.374 0 42.296-18.922 42.296-42.296v-35.061h-259.896v35.061zM512 119.652c-144.696 0-261.565 116.87-261.565 261.565s116.87 261.565 261.565 261.565 261.565-116.87 261.565-261.565-116.87-261.565-261.565-261.565zM667.826 330.574c0-3.339-1.113-6.122-3.339-8.348s-5.565-3.339-8.348-3.339h-80.696v-80.696c0-6.678-5.565-12.243-12.243-12.243h-102.4c-6.678 0-12.243 5.565-12.243 12.243v80.139h-80.139c0 0 0 0 0 0-3.339 0-6.122 1.113-8.348 3.339s-3.339 5.565-3.339 8.348v102.4c0 6.678 5.565 12.243 12.243 12.243h80.696v80.696c0 6.678 5.565 12.243 12.243 12.243h102.4c6.678 0 12.243-5.565 12.243-12.243v-80.139h80.139c0 0 0 0 0 0 6.678 0 12.243-5.565 12.243-12.243l-1.113-102.4z" />
<glyph unicode="&#xe90a;" glyph-name="phone-alt-light" d="M986.18 257.4l-216.78 93c-7.257 3.178-15.714 5.027-24.602 5.027-19.437 0-36.809-8.842-48.314-22.723l-0.084-0.104-88.2-107.8c-139.336 69.574-249.626 179.864-317.367 315.158l-1.833 4.042 107.8 88.2c13.984 11.585 22.825 28.953 22.825 48.386 0 8.886-1.848 17.34-5.182 24.998l0.157-0.405-93 217c-9.871 22.428-31.899 37.803-57.519 37.803-4.994 0-9.851-0.584-14.507-1.688l0.426 0.085-201.6-46.6c-27.914-6.474-48.4-31.13-48.4-60.57 0-0.081 0-0.162 0-0.242v0.013c0-506.58 410.6-914.98 914.98-914.98 0.035 0 0.076 0 0.117 0 29.582 0 54.36 20.565 60.82 48.178l0.083 0.423 46.38 201.4c1.017 4.218 1.6 9.061 1.6 14.041 0 25.575-15.381 47.558-37.398 57.203l-0.401 0.157zM913.78 0c-468.98 0.6-849.18 380.6-849.58 849.58l199.2 46 92-214.78-145.6-119c96.8-206.4 209-319 416.2-416.2l119 145.6 214.78-92z" />
<glyph unicode="&#xe90b;" glyph-name="planning" d="M150-34c0-16.57 13.43-30 30-30h662c16.57 0 30 13.43 30 30v90h-722zM842 788h-662c-16.523 0-30-13.477-30-30v-642h722v642c0 16.523-13.477 30-30 30zM394.211 255.789l-59-59c-5.625-5.633-13.25-8.789-21.211-8.789s-15.586 3.156-21.211 8.789l-24 24c-11.719 11.711-11.719 30.711 0 42.422 11.711 11.719 30.703 11.719 42.422 0l2.789-2.781 37.789 37.789c11.711 11.711 30.703 11.711 42.422 0 11.719-11.719 11.719-30.711 0-42.43zM394.211 433.789l-59-59c-5.625-5.633-13.25-8.789-21.211-8.789s-15.586 3.156-21.211 8.789l-24 24c-11.719 11.711-11.719 30.711 0 42.422 11.711 11.719 30.703 11.719 42.422 0l2.789-2.781 37.789 37.789c11.711 11.711 30.703 11.711 42.422 0 11.719-11.719 11.719-30.711 0-42.43zM394.211 612.789l-59-59c-5.859-5.859-13.531-8.789-21.211-8.789s-15.359 2.93-21.211 8.789l-24 24c-11.719 11.711-11.719 30.711 0 42.422 11.711 11.719 30.703 11.719 42.422 0l2.789-2.781 37.789 37.781c11.711 11.719 30.703 11.719 42.422 0 11.719-11.711 11.719-30.711 0-42.422zM722 216h-229.508c-16.563 0-30 13.43-30 30s13.438 30 30 30h229.508c16.57 0 30-13.43 30-30s-13.43-30-30-30zM722 394h-229.508c-16.563 0-30 13.43-30 30s13.438 30 30 30h229.508c16.57 0 30-13.43 30-30s-13.43-30-30-30zM722 573h-229.508c-16.563 0-30 13.438-30 30 0 16.57 13.438 30 30 30h229.508c16.57 0 30-13.43 30-30s-13.43-30-30-30zM410 930c0 16.57-13.43 30-30 30h-140c-16.57 0-30-13.43-30-30v-82h200zM812 930c0 16.57-13.43 30-30 30h-140c-16.57 0-30-13.43-30-30v-82h200z" />
<glyph unicode="&#xe90c;" glyph-name="property" d="M941.47 643.89l-329.984 302.87c-10.84 8.67-23.788 13.24-37.44 13.24-13.65 0-26.628-4.57-37.466-13.24l-329.95-301.966c-25.86-20.652-30.148-58.372-9.376-84.308 20.586-25.78 58.352-30.17 84.308-9.376l292.484 269.968 292.548-270.902c24.146-19.444 64.62-15.25 84.25 9.434 20.742 25.828 16.512 63.606-9.374 84.28zM874.020 959.912h-119.99c-16.58 0-29.998-13.416-29.998-29.998v-4.732l179.984-166.004v170.736c0.002 16.582-13.414 29.998-29.996 29.998zM94.088 477.954h-63.994c-16.58 0-29.998-13.416-29.998-29.998v-481.958c0-16.58 13.416-29.998 29.998-29.998h63.994c49.624 0 89.992 40.368 89.992 89.992v361.97c0 49.624-40.366 89.992-89.992 89.992zM999.412 406.56c-24.6 17.998-58.796 14.398-79.194-7.8l-161.986-201.582c-11.4-11.998-32.998-19.198-44.396-19.198h-259.78c-16.8 0-29.998 13.196-29.998 29.998s13.196 29.998 29.998 29.998c134.388 0 90.592 0 239.98 0 32.998 0 59.994 26.998 59.994 59.994 0 32.998-26.998 59.994-59.994 59.994-140.88 0-6.5 0-157.186 0-14.95 0-22.406 9.482-34.198 19.8-17.998 16.196-38.396 28.196-59.394 36.596-65.012 26.548-140.134 18.514-199.182-22.55 0-109.228 0-271.986 0-395.814h449.962c56.396 0 110.392 26.998 143.99 71.994l173.984 253.978c19.796 26.398 14.396 64.794-12.6 84.592zM573.988 739.376l-269.918-249.156v-8.14c19.802 4.562 39.986 7.65 60.638 7.65 34.95 0 68.988-6.68 101.212-19.832 6.354-2.542 12.052-6.138 18.132-9.13v47.182c0 16.58 13.416 29.998 29.998 29.998h119.99c16.58 0 29.998-13.416 29.998-29.998v-89.992h30c48.13 0 89.728-28.474 108.828-69.456l41.158 51.218v89.786l-270.036 249.87zM544.048 477.954v-56.736l3.604-3.26h56.392v59.996z" />
<glyph unicode="&#xe90d;" glyph-name="quote-1" d="M327.723 488.294c-24.714 7.522-50.502 10.745-75.215 10.745-37.608 0-69.843-8.596-94.556-19.341 23.639 87.035 80.588 236.39 193.41 252.508 10.745 1.075 19.341 9.671 21.49 19.341l24.714 88.109c2.149 7.522 1.075 15.043-3.224 21.49s-10.745 10.745-19.341 11.82c-8.596 1.075-17.192 2.149-25.788 2.149-133.238 0-267.551-140.76-324.499-343.841-33.31-119.27-42.98-297.637 38.682-410.46 46.204-63.396 112.823-96.705 198.783-99.929 0 0 1.075 0 1.075 0 106.376 0 200.932 71.992 228.869 174.069 17.192 61.247 9.671 125.717-21.49 181.591-30.086 53.725-81.662 93.482-142.909 111.748zM1112.109 375.471c-31.161 54.8-81.662 94.556-142.909 112.823-24.714 7.522-50.502 10.745-75.215 10.745-37.608 0-69.843-8.596-94.556-19.341 23.639 87.035 80.588 236.39 193.41 252.508 10.745 1.075 19.341 9.671 21.49 19.341l24.714 88.109c2.149 7.522 1.075 15.043-3.224 21.49s-10.745 10.745-19.341 11.82c-8.596 1.075-17.192 2.149-25.788 2.149-134.313 0-268.625-140.76-325.574-343.841-33.31-119.27-42.98-297.637 38.682-410.46 46.204-63.396 112.823-96.705 198.783-99.929 0 0 1.075 0 1.075 0 106.376 0 200.932 71.992 228.869 174.069 18.267 60.172 10.745 124.642-20.416 180.516z" />
<glyph unicode="&#xe90e;" glyph-name="rental" d="M970.5 368.312l-211.208 35.208-61.208 91.812c-15.876 23.792-42.416 38-71 38h-315.5c-28.584 0-55.126-14.208-71-38l-61.75-92.646-130.334-32.582c-28.542-7.124-48.5-32.666-48.5-62.084v-107.188c0-25.146 9.792-48.792 27.584-66.584 17.542-17.52 41.792-27.584 66.584-27.584h55.166c0.75 0 1.382 0.352 2.112 0.428 9.75-48.83 52.882-85.76 104.554-85.76s94.804 36.93 104.554 85.76c0.73-0.076 1.362-0.428 2.112-0.428h277.334c0.75 0 1.382 0.352 2.112 0.428 9.75-48.83 52.882-85.76 104.554-85.76s94.804 36.93 104.554 85.76c0.73-0.076 1.362-0.428 2.112-0.428h93.5c16.25 0 30.876 9.020 38.166 23.584l34.5 69.042c0.75 1.5 1.334 3.084 1.708 4.708l2.25 9.542c0.376 1.584 0.542 3.208 0.542 4.834v86.812c0.002 31.438-22.498 57.98-53.498 63.126zM256 64c-35.292 0-64 28.708-64 64s28.708 64 64 64 64-28.708 64-64c0-35.292-28.708-64-64-64zM668.666 320h-391.332c-7.5 0-14.458 3.938-18.292 10.376-3.876 6.438-4.042 14.416-0.5 21.020l45.666 85.334c3.708 6.938 10.916 11.27 18.792 11.27h292.666c7.376 0 14.25-3.812 18.126-10.084l53-85.334c4.084-6.584 4.292-14.854 0.5-21.626-3.75-6.768-10.876-10.956-18.626-10.956zM746.666 64c-35.292 0-64 28.708-64 64s28.708 64 64 64c35.292 0 64-28.708 64-64s-28.708-64-64-64zM222.834 707.584l64-42.666c3.5-2.334 7.626-3.584 11.834-3.584h185.588c24.020-50.314 74.942-85.334 134.41-85.334 82.474 0 149.334 66.86 149.334 149.334s-66.86 149.334-149.334 149.334c-59.468 0-110.39-35.020-134.412-85.334h-185.588c-4.208 0-8.334-1.25-11.834-3.584l-64-42.666c-5.916-3.958-9.5-10.626-9.5-17.75s3.584-13.792 9.502-17.75zM661.334 768c23.542 0 42.666-19.146 42.666-42.666s-19.126-42.666-42.666-42.666c-23.542 0-42.666 19.146-42.666 42.666-0.002 23.52 19.124 42.666 42.666 42.666z" />
<glyph unicode="&#xe90f;" glyph-name="right-arrow" d="M689.55 797.181c-13.95 14.438-37.168 14.438-51.606 0-13.95-13.95-13.95-37.168 0-51.086l261.674-261.674h-863.49c-20.129-0.033-36.128-16.032-36.128-36.16s15.999-36.648 36.128-36.648h863.49l-261.674-261.187c-13.95-14.438-13.95-37.689 0-51.606 14.438-14.438 37.689-14.438 51.606 0l323.622 323.622c14.438 13.95 14.438 37.168 0 51.086l-323.622 323.654z" />
<glyph unicode="&#xe910;" glyph-name="support" d="M512 960c-215.883 0-391.531-175.648-391.531-391.531v-361.406c0-49.828 40.531-90.359 90.352-90.359 49.828 0 90.359 40.531 90.359 90.359v301.172c0 49.82-40.531 90.352-90.359 90.352-10.141 0-19.734-2.055-28.852-5.148 12.852 171.023 155.805 306.328 330.031 306.328 174.133 0 317.047-135.18 330.016-306.086-9.062 3.102-18.711 4.906-28.836 4.906-49.828 0-90.359-40.531-90.359-90.352v-301.172c0-49.828 40.531-90.359 90.359-90.359 10.609 0 20.648 2.172 30.117 5.547v-35.664c0-16.617-13.531-30.117-30.117-30.117h-216.375c-12.477 34.984-45.594 60.234-84.805 60.234-49.82 0-90.352-40.531-90.352-90.352s40.531-90.352 90.352-90.352c39.211 0 72.328 25.258 84.805 60.234h216.375c49.82 0 90.352 40.531 90.352 90.352 0 181.156 0 300.531 0 481.883 0 215.883-175.648 391.531-391.531 391.531zM963.766 532.805v-350.312c34.977 12.469 60.234 45.586 60.234 84.805v180.703c0 39.211-25.258 72.328-60.234 84.805zM0 448v-180.703c0-39.219 25.258-72.336 60.234-84.805v350.312c-34.977-12.477-60.234-45.594-60.234-84.805z" />
<glyph unicode="&#xe911;" glyph-name="travel-insurance" d="M348.494 815.59c0.494 30.769 25.324 55.599 56.093 56.093h218.648c30.266 0 54.657-25.809 54.657-56.093v-72.802h33.417v72.802c0 48.69-39.385 89.51-88.075 89.51h-218.648c-49.221-0.513-88.998-40.289-89.51-89.51v-72.802h33.417zM78.769-6.713h866.462c43.506 0 78.769 35.263 78.769 78.769v575.254c0 43.506-35.263 78.769-78.769 78.769h-866.462c-43.506 0-78.769-35.263-78.769-78.769v-575.254c0-43.506 35.263-78.769 78.769-78.769zM513.193 625.977c153.007 0 277.035-124.028 277.035-277.035s-124.028-277.035-277.035-277.035-277.035 124.028-277.035 277.035c0.177 152.932 124.103 276.858 277.035 277.035zM513.193 105.324c134.545 0 243.618 109.072 243.618 243.618s-109.072 243.618-243.618 243.618-243.618-109.072-243.618-243.618c0.149-134.49 109.128-243.469 243.618-243.618zM338.9 324.998c-8.326 1.082-14.555 8.168-14.555 16.569 0.364 104.037 84.811 188.186 188.848 188.186 104.047 0 188.485-84.149 188.858-188.186 0-8.401-6.228-15.497-14.564-16.578-8.336-1.072-16.168 4.196-18.303 12.326-1.79 6.695-5.52 15.814-8.298 18.946-5.007 4.755-11.674 7.385-18.583 7.329-7.021 0.149-13.809-2.573-18.779-7.543s-7.702-11.758-7.543-18.788c0-9.221-7.487-16.709-16.709-16.709-9.231 0-16.709 7.487-16.709 16.709-0.065 7.077-2.825 13.855-7.72 18.965-5.007 4.783-11.683 7.422-18.611 7.366-7.030 0.149-13.818-2.573-18.788-7.543s-7.692-11.758-7.543-18.788v-129.175c0-22.434-18.182-40.625-40.615-40.625s-40.625 18.191-40.625 40.625c0 9.221 7.487 16.709 16.709 16.709 9.231 0 16.709-7.487 16.709-16.709 0-3.981 3.226-7.207 7.207-7.207 3.972 0 7.198 3.226 7.198 7.207v129.175c-0.065 7.077-2.825 13.855-7.711 18.965-5.016 4.783-11.692 7.422-18.62 7.366-7.030 0.149-13.818-2.573-18.788-7.543s-7.692-11.758-7.543-18.788c0-9.221-7.478-16.709-16.709-16.709s-16.709 7.487-16.709 16.709c-0.056 7.077-2.816 13.855-7.711 18.965-5.016 4.783-11.692 7.422-18.62 7.366-6.956-0.056-13.632-2.732-18.704-7.487-3.002-3.534-6.695-13.212-8.168-18.788-2.135-8.121-9.967-13.399-18.303-12.317zM426.499 379.683c0.121-0.121 0.242-0.242 0.354-0.364l0.27-0.289 0.261 0.289c0.233 0.242 0.476 0.485 0.718 0.718 11.329 10.825 26.378 16.895 42.051 16.97 15.869 0.028 31.114-6.191 42.415-17.324 0.121-0.121 0.242-0.242 0.354-0.364 0.121-0.121 0.177-0.196 0.27-0.289l0.261 0.289c0.233 0.242 0.476 0.485 0.718 0.718 11.338 10.825 26.387 16.895 42.051 16.97 15.869 0.028 31.114-6.191 42.424-17.324 0.121-0.121 0.233-0.242 0.354-0.364l0.261-0.289 0.27 0.289c0.224 0.242 0.466 0.485 0.709 0.718 15.664 15.086 38.2 20.634 59.077 14.536-22.312 61.501-80.737 102.443-146.154 102.424-65.417-0.009-123.823-40.97-146.117-102.471 21.044 6.228 43.804 0.541 59.45-14.844z" />
<glyph unicode="&#xe912;" glyph-name="twitter-brands" d="M918.74 656.568c0.65-9.096 0.65-18.194 0.65-27.29 0-277.44-211.166-597.116-597.116-597.116-118.904 0-229.36 34.438-322.274 94.212 16.894-1.948 33.136-2.598 50.68-2.598 98.11 0 188.426 33.136 260.548 89.664-92.264 1.95-169.584 62.376-196.224 145.544 12.996-1.948 25.99-3.248 39.636-3.248 18.842 0 37.686 2.6 55.228 7.146-96.162 19.494-168.286 103.96-168.286 205.97v2.598c27.938-15.594 60.428-25.34 94.862-26.638-56.528 37.686-93.562 102.010-93.562 174.782 0 38.984 10.394 74.72 28.588 105.908 103.31-127.35 258.6-210.516 432.73-219.614-3.248 15.594-5.198 31.836-5.198 48.080 0 115.656 93.564 209.868 209.868 209.868 60.426 0 115.004-25.34 153.34-66.274 47.43 9.096 92.912 26.64 133.198 50.68-15.596-48.732-48.732-89.666-92.264-115.654 42.234 4.546 83.168 16.244 120.852 32.486-28.584-41.582-64.322-78.616-105.256-108.506z" />
<glyph unicode="&#xe913;" glyph-name="umbrella" d="M512 474.637c-14.946 0-29.515-1.548-43.648-4.228v-352.832c-0.020-19.63-7.82-36.998-20.663-49.9-12.902-12.842-30.25-20.643-49.9-20.682-19.611 0.020-36.998 7.82-49.9 20.682-12.862 12.902-20.643 30.269-20.663 49.9v25.665h-89.836v-25.665c-0.020-44.144 18.023-84.536 46.982-113.416 28.88-28.959 69.272-47.002 113.416-46.982 44.144-0.020 84.536 18.023 113.416 46.982 28.959 28.88 47.002 69.272 46.982 113.416v352.376c-14.926 2.997-30.369 4.684-46.188 4.684zM558.168 866.274v72.528h-89.816v-72.329c-253.033-19.948-453.922-194.816-468.352-443.303 29.773 49.146 84.437 82.253 147.318 82.253 69.788 0 129.593-40.809 156.29-99.184l0.258 0.377c35.291 77.768 115.103 132.173 208.135 132.173 92.892 0 172.566-54.167 208.135-131.796l0.377-0.774c26.558 58.375 86.481 99.184 156.309 99.184 62.742 0 117.545-33.108 147.179-82.253-14.43 247.673-213.911 422.184-465.832 443.125z" />
<glyph unicode="&#xe914;" glyph-name="youtube-brands" horiz-adv-x="1152" d="M1099.31 711.834c-12.562 47.3-49.574 84.552-96.568 97.194-85.18 22.972-426.742 22.972-426.742 22.972s-341.56 0-426.742-22.972c-46.994-12.644-84.006-49.894-96.568-97.194-22.824-85.734-22.824-264.61-22.824-264.61s0-178.876 22.824-264.61c12.562-47.3 49.574-83 96.568-95.642 85.182-22.972 426.742-22.972 426.742-22.972s341.56 0 426.742 22.972c46.994 12.642 84.006 48.342 96.568 95.642 22.824 85.734 22.824 264.61 22.824 264.61s0 178.876-22.824 264.61zM464.29 284.818v324.812l285.478-162.41-285.478-162.402z" />
<glyph unicode="&#xe915;" glyph-name="airplane" d="M51.2 443.733l128-51.2-25.6-12.8c-8.533-4.267-12.8-12.8-8.533-21.333l38.4-81.067c0-4.267 4.267-8.533 8.533-8.533s8.533 0 12.8 0l281.6 132.267 4.267 38.4 4.267 51.2c0 8.533 8.533 12.8 12.8 12.8s8.533-4.267 8.533-8.533c0 0 0-4.267 0-4.267l-34.133-345.6c8.533-4.267 17.067-8.533 25.6-4.267 12.8 4.267 25.6 17.067 34.133 42.667l132.267 392.533h8.533c0 8.533 8.533 8.533 17.067 8.533s8.533-8.533 8.533-17.067c0 0 0 0 0 0l-17.067-34.133-12.8-42.667 221.867 102.4c64 29.867 98.133 89.6 76.8 136.533-12.8 25.6-38.4 42.667-64 42.667-29.867 4.267-59.733 0-89.6-12.8l-251.733-115.2-273.067 106.667c-34.133 12.8-59.733 12.8-76.8-4.267-17.067-12.8-25.6-29.867-25.6-51.2 0-4.267 4.267-8.533 8.533-12.8l179.2-123.733-102.4-51.2-174.933 42.667c-8.533 0-12.8 0-17.067-8.533l-42.667-76.8c-8.533-4.267-4.267-17.067 4.267-21.333 0 0 0 0 0 0z" />
<glyph unicode="&#xe916;" glyph-name="best" d="M512 745.951c-103.474 0-187.657-84.383-187.657-188.099 0-103.718 84.183-188.099 187.657-188.099s187.657 84.381 187.657 188.099c0 103.716-84.183 188.099-187.657 188.099zM544.021 453.486c0-16.569-13.433-30.002-30.002-30.002s-30.002 13.433-30.002 30.002v157.696h-10.035c-16.569 0-30.002 13.433-30.002 30.002s13.433 30.002 30.002 30.002h40.037c16.569 0 30.002-13.433 30.002-30.002zM888.809 477.844c19.222 21.866 41.007 46.646 41.087 79.456 0.078 32.547-21.49 57.316-40.519 79.168-10.807 12.413-21.984 25.248-25.296 35.525-3.024 9.377-1.438 25.72 0.098 41.527 2.854 29.41 6.086 62.745-13.677 90.071-19.782 27.35-52.428 34.655-81.232 41.097-15.453 3.456-31.43 7.031-39.361 12.811-8.705 6.342-17.395 20.98-25.802 35.135-14.805 24.932-31.588 53.19-62.523 63.259-31.2 10.163-61.507-2.884-88.247-14.389-14.939-6.427-30.384-13.073-40.843-13.073-0.020 0-0.040 0-0.060 0-10.189 0.024-25.46 6.689-40.229 13.133-26.868 11.721-57.318 25.008-88.917 14.785-30.522-9.875-47.216-37.857-61.947-62.545-8.569-14.361-17.427-29.21-26.5-35.797-9.065-6.583-25.896-10.395-42.173-14.081-28.008-6.342-59.755-13.531-78.616-39.515-19.498-26.86-16.379-59.961-13.627-89.165 1.516-16.085 3.082-32.719-0.078-42.463-3.24-9.995-14.381-22.67-25.156-34.925-19.22-21.866-41.007-46.646-41.087-79.456-0.080-32.547 21.49-57.316 40.519-79.17 10.809-12.413 21.984-25.248 25.296-35.523 3.022-9.379 1.436-25.722-0.098-41.527-2.854-29.41-6.088-62.745 13.675-90.071 19.782-27.35 52.428-34.653 81.232-41.097 15.453-3.456 31.43-7.031 39.361-12.811 8.705-6.342 17.395-20.98 25.802-35.135 14.807-24.932 31.588-53.19 62.523-63.261 31.194-10.155 61.505 2.886 88.247 14.391 14.939 6.427 30.384 13.073 40.841 13.073h0.060c10.189-0.026 25.46-6.689 40.227-13.131 20.126-8.781 42.259-18.437 65.381-18.437 7.747 0 15.607 1.084 23.538 3.65 30.522 9.875 47.218 37.859 61.949 62.547 8.567 14.359 17.425 29.208 26.496 35.795 9.065 6.583 25.896 10.395 42.175 14.081 28.008 6.342 59.755 13.533 78.616 39.515 19.498 26.86 16.379 59.961 13.629 89.165-1.516 16.085-3.082 32.719 0.076 42.463 3.244 9.995 14.385 22.668 25.16 34.925zM512 309.747c-136.561 0-247.661 111.299-247.661 248.103s111.101 248.103 247.661 248.103 247.661-111.299 247.661-248.103-111.101-248.103-247.661-248.103zM481.998 113.828c-21.396-8.855-46.788-17.681-76.116-17.681-14.439 0-28.584 2.22-42.037 6.601-42.577 13.861-67.693 45.296-84.825 72.104v-208.848c0-9.465 4.466-18.377 12.051-24.040 7.587-5.662 17.399-7.415 26.472-4.726l164.455 48.716zM659.181 102.261c-13.467-4.354-27.598-6.563-42.005-6.563-0.002 0-0.002 0-0.002 0-28.904 0-53.962 8.551-75.172 17.353v-127.1l164.455-48.716c2.798-0.828 5.668-1.236 8.521-1.236 6.396 0 12.707 2.046 17.953 5.962 7.585 5.664 12.051 14.575 12.051 24.040v210.036c-17.109-27.094-42.315-59.711-85.801-73.778z" />
<glyph unicode="&#xe917;" glyph-name="check-circle-regular" d="M512 944c-273.934 0-496-222.066-496-496s222.066-496 496-496 496 222.066 496 496-222.066 496-496 496zM512 848c221.064 0 400-178.902 400-400 0-221.064-178.902-400-400-400-221.064 0-400 178.902-400 400 0 221.064 178.902 400 400 400zM792.408 587.466l-45.072 45.436c-9.334 9.41-24.53 9.472-33.94 0.136l-282.704-280.432-119.584 120.554c-9.334 9.41-24.53 9.472-33.94 0.138l-45.438-45.072c-9.41-9.334-9.472-24.53-0.136-33.942l181.562-183.032c9.334-9.41 24.53-9.472 33.94-0.136l345.178 342.408c9.408 9.336 9.468 24.532 0.134 33.942z" />
<glyph unicode="&#xe918;" glyph-name="minus-solid" horiz-adv-x="896" d="M832 544h-768c-35.34 0-64-28.66-64-64v-64c0-35.34 28.66-64 64-64h768c35.34 0 64 28.66 64 64v64c0 35.34-28.66 64-64 64z" />
<glyph unicode="&#xe919;" glyph-name="plus-solid" horiz-adv-x="896" d="M832 544h-288v288c0 35.34-28.66 64-64 64h-64c-35.34 0-64-28.66-64-64v-288h-288c-35.34 0-64-28.66-64-64v-64c0-35.34 28.66-64 64-64h288v-288c0-35.34 28.66-64 64-64h64c35.34 0 64 28.66 64 64v288h288c35.34 0 64 28.66 64 64v64c0 35.34-28.66 64-64 64z" />
<glyph unicode="&#xe91a;" glyph-name="left-arrow" d="M334.45 797.181c13.95 14.438 37.168 14.438 51.606 0 13.95-13.95 13.95-37.168 0-51.086l-261.674-261.674h863.49c20.129-0.033 36.128-16.032 36.128-36.16s-15.999-36.648-36.128-36.648h-863.49l261.674-261.187c13.95-14.438 13.95-37.689 0-51.606-14.438-14.438-37.689-14.438-51.606 0l-323.622 323.622c-14.438 13.95-14.438 37.168 0 51.086l323.622 323.654z" />
<glyph unicode="&#xe91b;" glyph-name="instagram" horiz-adv-x="896" d="M448.2 678c-127.2 0-229.8-102.6-229.8-229.8s102.6-229.8 229.8-229.8 229.8 102.6 229.8 229.8-102.6 229.8-229.8 229.8zM448.2 298.8c-82.2 0-149.4 67-149.4 149.4s67 149.4 149.4 149.4 149.4-67 149.4-149.4-67.2-149.4-149.4-149.4zM741 687.4c0-29.8-24-53.6-53.6-53.6-29.8 0-53.6 24-53.6 53.6s24 53.6 53.6 53.6 53.6-24 53.6-53.6zM893.2 633c-3.4 71.8-19.8 135.4-72.4 187.8-52.4 52.4-116 68.8-187.8 72.4-74 4.2-295.8 4.2-369.8 0-71.6-3.4-135.2-19.8-187.8-72.2s-68.8-116-72.4-187.8c-4.2-74-4.2-295.8 0-369.8 3.4-71.8 19.8-135.4 72.4-187.8s116-68.8 187.8-72.4c74-4.2 295.8-4.2 369.8 0 71.8 3.4 135.4 19.8 187.8 72.4 52.4 52.4 68.8 116 72.4 187.8 4.2 74 4.2 295.6 0 369.6zM797.6 184c-15.6-39.2-45.8-69.4-85.2-85.2-59-23.4-199-18-264.2-18s-205.4-5.2-264.2 18c-39.2 15.6-69.4 45.8-85.2 85.2-23.4 59-18 199-18 264.2s-5.2 205.4 18 264.2c15.6 39.2 45.8 69.4 85.2 85.2 59 23.4 199 18 264.2 18s205.4 5.2 264.2-18c39.2-15.6 69.4-45.8 85.2-85.2 23.4-59 18-199 18-264.2s5.4-205.4-18-264.2z" />
<glyph unicode="&#xe91c;" glyph-name="youtube" horiz-adv-x="1152" d="M1099.31 711.834c-12.562 47.3-49.574 84.552-96.568 97.194-85.18 22.972-426.742 22.972-426.742 22.972s-341.56 0-426.742-22.972c-46.994-12.644-84.006-49.894-96.568-97.194-22.824-85.734-22.824-264.61-22.824-264.61s0-178.876 22.824-264.61c12.562-47.3 49.574-83 96.568-95.642 85.182-22.972 426.742-22.972 426.742-22.972s341.56 0 426.742 22.972c46.994 12.642 84.006 48.342 96.568 95.642 22.824 85.734 22.824 264.61 22.824 264.61s0 178.876-22.824 264.61zM464.29 284.818v324.812l285.478-162.41-285.478-162.402z" />
<glyph unicode="&#xe91d;" glyph-name="twitter" d="M918.74 656.568c0.65-9.096 0.65-18.194 0.65-27.29 0-277.44-211.166-597.116-597.116-597.116-118.904 0-229.36 34.438-322.274 94.212 16.894-1.948 33.136-2.598 50.68-2.598 98.11 0 188.426 33.136 260.548 89.664-92.264 1.95-169.584 62.376-196.224 145.544 12.996-1.948 25.99-3.248 39.636-3.248 18.842 0 37.686 2.6 55.228 7.146-96.162 19.494-168.286 103.96-168.286 205.97v2.598c27.938-15.594 60.428-25.34 94.862-26.638-56.528 37.686-93.562 102.010-93.562 174.782 0 38.984 10.394 74.72 28.588 105.908 103.31-127.35 258.6-210.516 432.73-219.614-3.248 15.594-5.198 31.836-5.198 48.080 0 115.656 93.564 209.868 209.868 209.868 60.426 0 115.004-25.34 153.34-66.274 47.43 9.096 92.912 26.64 133.198 50.68-15.596-48.732-48.732-89.666-92.264-115.654 42.234 4.546 83.168 16.244 120.852 32.486-28.584-41.582-64.322-78.616-105.256-108.506z" />
<glyph unicode="&#xe91e;" glyph-name="facebook" horiz-adv-x="640" d="M558.28 384l28.44 185.32h-177.82v120.26c0 50.7 24.84 100.12 104.48 100.12h80.84v157.78s-73.36 12.52-143.5 12.52c-146.44 0-242.16-88.76-242.16-249.44v-141.24h-162.78v-185.32h162.78v-448h200.34v448z" />
<glyph unicode="&#xe91f;" glyph-name="envelope" d="M928 832h-832c-53.020 0-96-42.98-96-96v-576c0-53.020 42.98-96 96-96h832c53.020 0 96 42.98 96 96v576c0 53.020-42.98 96-96 96zM928 736v-81.61c-44.844-36.518-116.336-93.302-269.174-212.98-33.682-26.494-100.402-90.144-146.826-89.402-46.416-0.75-113.158 62.918-146.826 89.402-152.814 119.66-224.324 176.456-269.174 212.98v81.61h832zM96 160v371.204c45.828-36.502 110.818-87.724 209.876-165.292 43.714-34.41 120.268-110.372 206.124-109.91 85.434-0.462 161.018 74.398 206.106 109.894 99.056 77.566 164.064 128.802 209.894 165.306v-371.202h-832z" />
<glyph unicode="&#xe920;" glyph-name="map-marker" horiz-adv-x="768" d="M384 960c-212.194 0-384-172.028-384-384 0-142.234 47.982-186.682 302.542-594.848 37.57-60.238 125.388-60.166 162.914 0 254.694 408.38 302.544 452.642 302.544 594.848 0 212.194-172.028 384-384 384zM384 32c-254.848 408.628-288 434.424-288 544 0 159.058 128.942 288 288 288s288-128.942 288-288c0-109.106-30.332-130.85-288-544zM224 576c0 88.366 71.634 160 160 160s160-71.634 160-160-71.634-160-160-160-160 71.634-160 160z" />
</font>
</defs>
</svg>
